# xmcd
#
# Track frame offsets:
#	150
#	16782
#	48445
#
# Disc length: 1031 seconds
#
# Revision: 0
# Processed by: cddbd v1.5.1PL2 Copyright (c) Steve Scherf et al.
# Submitted via: audiograbber 1.83.01
#
DISCID=18040503
DTITLE=High Society - Feel the Love (Feat.Carol Leeming
DYEAR=1998
DGENRE=Dance
TTITLE0=Feel the Love (7'' mix)
TTITLE1=Feel the Love (High Society Higher Club mix)
TTITLE2=Feel the Love (High Society Original 12''mix)
EXTD=
EXTT0=
EXTT1=
EXTT2=
PLAYORDER=
